<?xml version="1.0" standalone="no"?>
<!DOCTYPE svg PUBLIC "-//W3C//DTD SVG 20010904//EN"
 "http://www.w3.org/TR/2001/REC-SVG-20010904/DTD/svg10.dtd">
<svg version="1.0" xmlns="http://www.w3.org/2000/svg"
 width="1920.000000pt" height="1106.000000pt" viewBox="0 0 1920.000000 1106.000000"
 preserveAspectRatio="xMidYMid meet">

<g transform="translate(0.000000,1106.000000) scale(0.100000,-0.100000)"
fill="#000000" stroke="none">
<path d="M8665 10709 c-594 -12 -1526 -68 -2010 -119 -49 -5 -137 -14 -195
-20 -133 -14 -264 -28 -360 -40 -41 -6 -131 -17 -200 -25 -69 -8 -143 -17
-165 -20 -22 -3 -76 -10 -120 -15 -137 -17 -226 -29 -325 -45 -52 -9 -124 -20
-160 -26 -36 -6 -87 -14 -115 -19 -55 -10 -114 -20 -160 -26 -42 -6 -174 -31
-350 -65 -222 -43 -257 -50 -285 -60 -14 -4 -81 -20 -150 -34 -229 -48 -732
-171 -880 -215 -36 -10 -105 -31 -155 -45 -120 -35 -632 -203 -670 -220 -16
-8 -88 -36 -160 -63 -425 -161 -773 -335 -1100 -551 -210 -138 -448 -361 -567
-531 -46 -66 -125 -228 -151 -310 -50 -153 -53 -306 -12 -505 27 -130 33 -162
61 -330 9 -49 20 -112 25 -140 4 -27 13 -88 18 -135 6 -47 20 -134 31 -195 12
-60 25 -135 30 -165 10 -63 78 -450 92 -525 5 -27 13 -72 17 -100 15 -88 80
-455 111 -630 17 -93 35 -195 40 -225 16 -100 28 -164 39 -212 6 -26 18 -93
26 -149 9 -56 22 -134 29 -173 8 -39 21 -114 30 -166 28 -170 58 -344 68 -395
5 -27 11 -66 14 -85 4 -31 46 -273 75 -430 5 -30 14 -80 19 -110 46 -281 82
-403 162 -558 160 -309 437 -583 883 -871 216 -140 670 -367 984 -492 69 -28
146 -59 171 -69 79 -34 431 -153 620 -210 58 -17 116 -35 130 -39 14 -5 45
-14 70 -21 25 -7 56 -16 69 -21 46 -19 516 -140 561 -145 25 -3 97 -17 160
-31 165 -37 165 -37 390 -82 113 -23 216 -43 230 -45 14 -2 59 -10 100 -19 81
-18 254 -48 415 -73 55 -8 129 -20 165 -25 36 -6 119 -17 185 -25 66 -8 155
-19 198 -24 218 -28 388 -47 522 -61 55 -5 141 -14 190 -19 236 -25 521 -45
1015 -71 366 -19 1156 -28 1640 -18 468 9 635 15 1010 38 96 6 209 13 250 15
113 7 474 39 625 56 280 30 406 45 520 60 44 6 132 17 195 25 63 8 142 19 175
24 33 5 80 12 105 16 42 6 81 12 218 35 31 5 100 16 152 25 52 9 109 20 126
26 17 5 48 12 70 14 21 3 46 7 54 10 8 2 30 7 47 10 18 3 79 15 135 26 57 12
123 25 148 30 56 11 99 20 220 49 52 12 124 26 160 30 54 7 489 117 595 150
17 5 77 24 135 41 123 36 483 152 555 179 175 65 181 67 510 205 229 96 619
293 790 398 240 148 460 322 625 493 102 106 150 165 211 259 131 201 174 312
219 575 6 36 15 85 20 110 5 25 13 72 19 105 6 33 17 98 25 145 9 47 18 99 20
115 13 84 51 293 97 545 5 30 14 80 19 110 5 30 14 84 20 120 6 36 13 76 15
90 19 116 37 218 55 315 6 28 14 75 20 105 5 30 14 81 20 113 23 130 31 174
35 207 3 19 10 60 16 90 15 83 29 159 39 220 5 30 19 109 30 175 11 66 25 145
30 175 14 88 29 173 35 200 3 14 10 52 15 85 5 33 14 85 19 115 12 65 48 262
62 340 6 30 14 80 19 110 11 64 28 166 34 195 6 30 19 108 21 125 2 8 13 69
25 135 12 66 26 143 30 170 4 28 16 79 26 115 14 49 18 101 18 210 0 127 -3
155 -26 230 -14 47 -48 131 -76 186 -195 388 -675 765 -1372 1076 -138 62
-213 93 -450 188 -125 50 -518 181 -715 239 -77 23 -169 50 -205 61 -73 22
-603 155 -750 189 -412 93 -632 137 -965 192 -33 5 -82 14 -110 19 -68 12
-228 38 -350 55 -55 8 -129 19 -165 25 -72 11 -135 19 -195 26 -22 3 -76 9
-120 15 -214 27 -378 46 -510 59 -49 5 -137 14 -195 20 -103 10 -239 23 -505
45 -118 10 -359 26 -675 45 -732 45 -1644 59 -2545 39z m1840 -128 c371 -14
718 -31 940 -46 50 -4 115 -8 145 -10 133 -9 353 -26 450 -35 58 -6 155 -14
215 -20 61 -5 153 -14 205 -20 52 -6 136 -15 185 -20 85 -9 229 -24 319 -35
23 -3 64 -7 91 -10 28 -3 79 -10 115 -15 36 -6 117 -17 180 -26 63 -8 142 -20
175 -25 33 -6 89 -14 125 -19 36 -5 108 -16 160 -25 52 -8 138 -23 190 -31 52
-8 115 -19 140 -24 25 -5 97 -18 160 -30 171 -32 425 -85 605 -126 88 -20 178
-40 200 -45 42 -9 428 -106 529 -134 57 -15 197 -56 376 -108 184 -55 517
-170 613 -212 17 -8 70 -28 117 -46 328 -123 752 -338 995 -502 189 -128 229
-161 363 -291 221 -216 327 -392 372 -624 26 -128 -7 -310 -83 -461 -117 -234
-326 -451 -637 -659 -63 -42 -119 -79 -125 -82 -5 -3 -21 -12 -35 -22 -88 -58
-499 -266 -667 -337 -298 -127 -745 -285 -923 -326 -41 -10 -104 -27 -140 -37
-36 -11 -117 -35 -180 -54 -63 -20 -128 -39 -145 -44 -67 -20 -549 -136 -725
-174 -36 -8 -92 -22 -125 -30 -33 -9 -85 -20 -115 -26 -30 -5 -86 -16 -125
-24 -105 -22 -275 -53 -415 -76 -402 -67 -547 -89 -720 -110 -47 -6 -96 -13
-110 -15 -14 -2 -83 -11 -155 -19 -167 -20 -203 -25 -300 -37 -124 -15 -249
-29 -375 -39 -63 -6 -164 -14 -225 -20 -393 -34 -551 -46 -990 -70 -1048 -60
-2327 -60 -3370 0 -419 23 -642 39 -875 60 -58 5 -159 14 -225 20 -201 18
-326 30 -410 40 -219 26 -335 40 -380 45 -27 2 -68 7 -90 11 -22 3 -51 7 -65
8 -196 24 -430 59 -772 117 -31 5 -70 11 -85 13 -15 2 -68 11 -118 20 -445 86
-446 86 -605 125 -47 11 -105 25 -130 31 -237 52 -621 148 -730 182 -52 17
-124 38 -160 48 -36 10 -104 30 -153 44 -48 14 -95 26 -105 26 -30 1 -430 138
-632 217 -215 84 -292 119 -525 235 -288 145 -371 190 -495 272 -358 235 -615
509 -714 759 -48 122 -58 387 -19 512 89 288 426 633 877 899 216 128 581 303
816 392 19 7 60 23 90 34 234 91 632 225 810 274 30 8 89 25 130 36 138 39
184 51 405 106 326 80 539 129 547 124 2 -1 17 4 33 10 17 7 41 14 55 16 28 5
251 49 320 63 25 5 74 15 110 21 36 6 85 15 110 20 25 5 65 12 90 16 25 3 54
8 65 10 11 3 49 9 85 15 36 5 90 14 120 19 30 5 89 14 130 20 41 6 102 16 135
21 70 11 335 45 415 54 30 3 66 7 80 10 26 4 33 5 250 30 291 33 466 51 630
65 69 6 166 15 215 20 80 8 156 14 345 26 490 31 667 39 1125 54 187 6 363 12
390 14 96 7 1372 -4 1630 -13z m-9925 -3221 c0 -27 228 -245 419 -400 105 -85
377 -252 564 -347 296 -149 744 -335 912 -378 28 -7 140 -43 250 -80 110 -37
254 -82 320 -100 66 -18 165 -47 220 -65 155 -48 646 -168 885 -215 36 -7 81
-18 100 -24 19 -5 51 -13 70 -16 19 -3 64 -12 100 -20 75 -16 212 -42 288 -56
76 -13 145 -26 247 -44 50 -9 99 -18 110 -20 11 -1 38 -5 60 -9 22 -4 68 -11
103 -16 92 -15 184 -29 255 -40 34 -5 87 -12 117 -14 30 -3 91 -10 135 -16 44
-6 136 -17 205 -25 269 -29 517 -56 560 -60 25 -2 97 -9 160 -15 149 -14 293
-27 455 -40 72 -5 180 -14 240 -20 210 -19 630 -39 1215 -57 340 -10 1467 -10
1805 0 363 11 703 25 880 36 305 20 599 42 810 61 61 5 137 12 170 14 179 15
300 27 319 31 12 3 46 7 76 10 30 2 93 9 140 15 47 6 126 15 175 20 50 6 122
15 160 20 39 6 111 15 160 20 80 9 214 26 270 35 11 1 56 8 100 14 187 28 315
48 435 71 25 5 74 14 110 20 36 6 85 15 110 20 25 5 63 11 85 14 53 5 338 64
395 81 25 7 92 23 150 35 129 28 276 63 395 95 50 13 128 33 175 45 47 12 135
36 195 55 61 18 144 43 185 54 41 12 118 35 170 51 52 16 155 47 227 69 73 22
142 45 152 51 11 5 31 10 45 10 13 0 57 13 98 29 40 16 105 41 143 56 39 14
79 30 90 35 11 5 61 25 110 44 89 34 166 68 195 86 8 5 89 46 180 91 372 184
540 289 786 490 68 56 209 197 272 274 29 35 33 37 28 15 -3 -14 -10 -54 -16
-90 -14 -84 -29 -171 -41 -240 -6 -30 -14 -80 -19 -110 -5 -30 -19 -109 -30
-175 -11 -66 -25 -147 -30 -180 -14 -85 -20 -115 -31 -158 -6 -21 -12 -50 -14
-65 -1 -15 -13 -83 -25 -152 -13 -69 -24 -136 -25 -150 -7 -63 -63 -368 -69
-379 -3 -5 -8 -28 -11 -52 -3 -24 -7 -57 -10 -74 -2 -16 -8 -64 -14 -106 -6
-42 -18 -109 -27 -150 -9 -41 -20 -94 -24 -119 -34 -183 -54 -303 -71 -415
-11 -71 -23 -143 -28 -160 -6 -16 -19 -88 -31 -160 -11 -71 -25 -150 -30 -175
-5 -25 -19 -106 -31 -180 -12 -74 -22 -142 -24 -150 -13 -72 -19 -106 -20
-110 -1 -3 -5 -27 -9 -55 -4 -27 -12 -72 -17 -100 -60 -311 -72 -366 -103
-443 -71 -177 -167 -329 -278 -444 -64 -65 -274 -256 -322 -293 -59 -45 -302
-207 -336 -225 -14 -7 -34 -20 -45 -30 -11 -10 -36 -26 -55 -37 -19 -10 -55
-32 -80 -48 -25 -16 -62 -35 -83 -42 -21 -7 -81 -35 -135 -62 -124 -62 -315
-146 -463 -204 -64 -25 -136 -55 -159 -67 -24 -12 -61 -28 -84 -35 -22 -7 -79
-27 -126 -44 -83 -31 -427 -145 -525 -174 -27 -8 -108 -32 -180 -52 -71 -21
-159 -47 -195 -58 -36 -11 -81 -23 -100 -28 -19 -4 -84 -19 -145 -34 -60 -14
-119 -28 -130 -31 -11 -3 -38 -9 -60 -13 -22 -5 -83 -19 -135 -31 -184 -43
-266 -60 -365 -76 -55 -8 -145 -25 -200 -36 -182 -36 -285 -55 -370 -68 -33
-5 -118 -18 -190 -30 -71 -11 -150 -23 -175 -25 -25 -3 -52 -8 -60 -10 -8 -3
-40 -7 -70 -10 -30 -3 -66 -7 -80 -10 -14 -3 -45 -7 -70 -10 -25 -3 -94 -13
-155 -21 -209 -28 -379 -47 -565 -64 -58 -6 -121 -12 -140 -14 -63 -8 -225
-20 -233 -18 -5 2 -55 -2 -110 -8 -56 -6 -131 -12 -167 -14 -748 -35 -1003
-45 -1330 -53 -453 -10 -1485 25 -1950 67 -58 5 -132 12 -165 15 -33 2 -118
10 -190 16 -71 6 -148 12 -170 14 -42 4 -190 19 -335 35 -47 5 -121 14 -165
20 -44 6 -111 15 -150 20 -219 27 -359 47 -505 70 -30 5 -84 14 -120 20 -77
12 -137 23 -245 45 -44 9 -102 21 -130 26 -27 6 -54 11 -60 13 -11 3 -81 13
-140 20 -22 3 -87 15 -145 27 -58 11 -125 25 -150 30 -154 30 -715 173 -915
234 -181 54 -272 81 -355 105 -102 30 -442 152 -510 183 -30 14 -86 37 -125
52 -278 109 -749 330 -830 389 -16 13 -69 46 -117 75 -102 61 -238 157 -352
249 -94 76 -311 287 -343 335 -12 17 -33 43 -45 57 -71 78 -179 297 -207 421
-35 151 -49 223 -66 324 -8 55 -25 150 -35 210 -11 61 -27 150 -35 199 -8 49
-19 105 -25 125 -5 20 -14 70 -19 111 -14 103 -59 372 -66 390 -4 8 -26 134
-51 280 -43 253 -76 450 -88 515 -3 17 -13 75 -21 130 -16 101 -22 136 -51
280 -9 44 -20 105 -24 135 -5 30 -14 80 -19 110 -68 372 -81 446 -97 545 -2
17 -11 66 -19 110 -23 131 -55 306 -66 370 -9 52 -19 109 -35 193 -2 12 0 22
6 22 5 0 10 -4 10 -10z"/>
<path d="M8475 10428 c-77 -3 -223 -9 -325 -12 -293 -9 -905 -49 -1190 -76
-58 -6 -154 -15 -215 -20 -60 -5 -153 -14 -205 -20 -52 -5 -144 -15 -205 -20
-60 -6 -139 -15 -175 -20 -36 -5 -110 -14 -165 -20 -55 -7 -147 -19 -205 -27
-58 -8 -123 -17 -145 -19 -61 -7 -170 -22 -280 -40 -55 -8 -111 -17 -125 -19
-233 -36 -419 -69 -720 -130 -41 -9 -86 -17 -100 -20 -14 -3 -36 -7 -50 -10
-14 -3 -34 -7 -45 -9 -11 -3 -40 -10 -65 -16 -48 -12 -66 -16 -205 -48 -49
-12 -153 -37 -230 -56 -131 -32 -165 -41 -312 -82 -32 -9 -71 -19 -88 -24
-376 -102 -842 -271 -1201 -438 -168 -78 -228 -110 -414 -220 -299 -178 -531
-390 -658 -603 -144 -239 -158 -499 -41 -746 103 -218 334 -449 646 -645 54
-34 109 -68 123 -77 150 -94 440 -231 725 -343 185 -72 539 -193 665 -226 41
-11 116 -32 165 -45 249 -70 446 -120 610 -157 55 -12 129 -30 165 -41 65 -18
185 -44 465 -98 204 -40 311 -59 365 -67 25 -3 68 -10 95 -15 28 -5 109 -19
180 -30 72 -11 157 -24 190 -30 33 -5 94 -14 135 -19 41 -5 111 -14 155 -20
136 -18 225 -29 370 -45 77 -8 181 -20 230 -25 50 -6 135 -15 190 -20 55 -6
145 -14 200 -20 94 -9 184 -17 480 -40 930 -74 2510 -97 3535 -50 397 18 425
19 525 25 174 10 523 37 730 56 282 26 349 32 640 65 77 8 158 17 180 19 154
15 522 67 880 126 72 11 144 23 160 25 17 2 68 11 115 20 47 9 132 25 190 35
108 21 116 22 312 64 64 14 134 28 155 31 21 3 45 9 53 14 8 4 51 15 95 25 75
17 585 146 650 165 17 4 73 20 125 35 148 41 260 75 315 95 28 10 124 44 215
76 332 116 772 315 942 427 46 29 117 75 158 102 160 103 334 254 451 390 76
89 144 211 185 335 25 76 29 99 29 215 0 110 -4 142 -24 205 -46 143 -105 246
-222 385 -108 129 -231 233 -422 358 -207 136 -243 155 -590 322 -201 96 -538
222 -862 324 -146 45 -211 65 -405 121 -65 18 -306 78 -580 144 -80 19 -215
48 -300 65 -85 17 -213 42 -285 57 -71 14 -155 30 -185 34 -57 9 -160 27 -195
34 -17 3 -100 15 -145 21 -8 1 -60 10 -115 19 -55 9 -131 21 -170 26 -38 6
-97 15 -130 20 -33 5 -100 14 -150 20 -49 6 -119 15 -155 20 -70 10 -172 22
-205 25 -11 1 -51 5 -90 9 -38 4 -92 9 -120 12 -27 3 -95 9 -150 15 -55 5
-147 14 -205 19 -58 5 -157 14 -220 20 -295 26 -845 63 -1130 75 -575 24
-1977 32 -2375 13z"/>
<path d="M18854 8475 c18 -44 46 -134 62 -200 25 -108 28 -137 27 -285 -1
-138 -5 -183 -26 -275 -14 -60 -28 -126 -31 -145 -6 -39 -20 -119 -36 -207 -6
-32 -15 -83 -20 -113 -5 -30 -13 -77 -19 -105 -5 -27 -19 -104 -30 -170 -12
-66 -23 -130 -25 -142 -3 -11 -8 -43 -11 -70 -7 -50 -57 -339 -74 -428 -6 -27
-15 -77 -20 -110 -6 -33 -17 -94 -26 -135 -8 -41 -17 -93 -19 -115 -7 -48 -18
-114 -66 -375 -21 -117 -39 -218 -85 -485 -14 -82 -30 -172 -35 -200 -6 -27
-14 -75 -20 -105 -5 -30 -14 -81 -20 -112 -5 -32 -14 -82 -19 -110 -6 -29 -20
-107 -32 -173 -12 -66 -23 -129 -24 -140 -5 -27 -24 -148 -34 -215 -8 -48 -32
-183 -61 -345 -8 -41 -37 -209 -55 -314 -2 -13 -7 -45 -11 -70 -34 -242 -172
-542 -361 -781 -152 -193 -402 -419 -653 -590 -19 -13 -37 -27 -40 -30 -27
-34 -345 -214 -590 -333 -267 -131 -355 -170 -595 -264 -104 -41 -210 -84
-235 -95 -85 -39 -696 -235 -850 -273 -602 -150 -732 -180 -960 -226 -80 -16
-163 -33 -185 -38 -22 -6 -92 -19 -155 -31 -63 -12 -155 -30 -205 -40 -49 -10
-112 -22 -138 -25 -27 -4 -59 -8 -70 -11 -22 -4 -243 -37 -367 -55 -36 -5 -94
-13 -130 -19 -99 -15 -205 -30 -305 -41 -49 -6 -103 -12 -120 -14 -126 -15
-273 -30 -530 -55 -1030 -100 -2230 -124 -3390 -70 -293 14 -683 42 -915 66
-80 9 -188 19 -240 24 -142 13 -385 39 -475 50 -44 6 -116 15 -160 21 -167 21
-212 28 -285 39 -41 6 -102 16 -135 20 -33 5 -87 14 -120 19 -33 5 -105 17
-160 25 -114 18 -173 29 -515 96 -339 67 -419 85 -825 187 -240 59 -348 88
-424 113 -35 11 -74 22 -85 24 -66 12 -608 195 -801 271 -660 257 -1190 545
-1556 845 -31 25 -43 32 -29 16 14 -15 88 -75 165 -132 77 -57 147 -110 155
-118 8 -7 33 -23 55 -35 22 -12 67 -39 100 -61 33 -22 67 -43 75 -47 9 -4 56
-31 105 -59 130 -74 229 -128 235 -129 3 0 73 -34 155 -74 83 -40 164 -79 180
-86 17 -7 65 -29 107 -49 42 -20 86 -36 98 -36 14 0 19 -4 14 -13 -4 -6 -4 -9
1 -5 4 4 15 2 23 -5 9 -6 13 -7 10 -2 -4 6 19 -2 50 -17 31 -15 71 -32 87 -37
17 -5 77 -27 134 -50 58 -22 108 -38 112 -35 4 2 9 0 11 -6 1 -5 12 -11 23
-13 11 -2 32 -9 46 -15 15 -6 45 -16 67 -22 23 -6 44 -15 47 -20 3 -6 20 -10
36 -10 16 0 57 -11 91 -25 34 -14 65 -25 69 -25 4 0 20 -5 36 -12 15 -6 33
-12 38 -13 37 -9 109 -30 159 -47 33 -10 68 -17 78 -15 10 3 18 1 18 -4 0 -5
9 -9 19 -9 11 0 23 -5 26 -10 4 -6 10 -8 15 -5 5 3 19 1 31 -6 17 -9 20 -8 13
3 -6 11 -5 11 9 -1 9 -7 17 -10 17 -5 0 4 5 3 12 -4 7 -7 22 -12 33 -12 12 0
25 -3 29 -7 10 -10 102 -34 139 -36 15 -1 27 -5 27 -9 0 -5 3 -7 8 -7 4 1 9 0
12 -1 3 -1 12 -3 20 -5 8 -2 41 -11 73 -19 32 -9 73 -17 92 -19 18 -1 31 -6
28 -11 -3 -5 0 -6 8 -4 8 3 25 1 39 -5 43 -16 262 -57 273 -50 6 3 7 1 3 -5
-5 -8 1 -12 18 -12 13 0 35 -4 48 -9 52 -19 80 -22 72 -9 -6 10 -5 10 7 1 14
-11 180 -50 252 -59 21 -3 48 -8 60 -13 12 -4 36 -6 52 -6 17 1 35 -2 42 -7 7
-5 22 -7 35 -3 18 5 20 4 8 -5 -13 -9 -12 -11 5 -9 11 2 54 -3 95 -10 161 -28
181 -30 197 -24 12 5 14 3 8 -7 -6 -9 1 -12 28 -8 20 2 34 1 32 -3 -3 -3 8 -7
23 -7 37 -2 76 -7 88 -13 5 -3 27 -5 49 -4 22 0 42 -3 45 -6 5 -5 225 -39 295
-45 17 -1 53 -6 80 -10 28 -3 75 -7 107 -8 31 0 54 -4 52 -8 -3 -4 4 -7 13 -7
10 0 47 -3 83 -7 36 -4 79 -8 95 -8 17 -1 32 -4 35 -7 3 -3 73 -11 155 -18 83
-7 164 -14 180 -16 17 -2 62 -6 100 -9 39 -3 88 -7 110 -10 37 -5 94 -10 245
-21 30 -2 136 -9 235 -15 99 -5 214 -13 255 -16 41 -2 144 -7 229 -10 84 -2
157 -7 162 -10 5 -3 9 -1 9 4 0 6 14 7 38 1 20 -5 75 -9 122 -9 47 0 188 -3
314 -6 186 -5 230 -4 237 7 5 8 9 9 9 3 0 -14 31 -14 49 0 12 9 13 8 6 -3 -7
-12 57 -13 431 -7 241 4 472 10 512 14 45 5 76 4 82 -2 6 -6 10 -6 10 0 0 5
45 10 103 10 221 3 798 40 839 54 17 5 30 5 33 -1 4 -5 11 -6 17 -3 6 4 29 8
53 9 23 1 47 5 53 9 7 4 12 3 12 -2 0 -6 15 -6 42 -1 23 6 47 8 55 5 7 -3 13
-2 13 2 0 4 19 7 43 7 23 0 98 6 167 14 69 7 152 15 185 17 33 2 66 7 73 9 8
3 46 8 85 11 40 3 73 9 75 13 1 3 21 5 45 3 31 -2 38 -1 27 7 -9 7 -10 11 -3
11 6 0 14 -4 17 -8 5 -9 29 -6 256 29 74 12 143 22 153 22 10 1 22 9 27 17 9
13 10 13 10 0 0 -13 1 -13 10 0 7 11 10 11 10 2 0 -9 10 -11 33 -8 171 28 227
36 257 40 82 10 176 29 190 38 11 7 10 8 -5 3 -15 -5 -17 -3 -9 5 9 9 17 9 31
1 20 -10 66 -4 58 8 -2 4 8 6 23 3 15 -2 128 17 252 43 124 26 273 56 332 68
59 11 105 23 103 26 -2 4 12 6 31 5 19 -1 34 1 34 5 0 4 8 7 18 7 9 1 76 15
147 33 72 18 138 33 148 34 10 1 15 7 13 14 -4 9 1 10 19 3 14 -5 25 -6 25 -2
0 4 26 13 58 20 143 30 168 37 175 50 6 9 12 10 20 3 14 -11 259 58 251 71 -3
4 2 5 10 2 14 -5 59 5 111 25 11 4 61 20 110 35 50 16 101 33 115 39 14 6 33
12 43 14 25 4 168 55 257 91 41 17 84 34 95 38 11 4 22 8 25 9 3 2 14 6 25 9
70 24 130 53 130 63 0 6 4 15 8 20 5 4 7 4 5 -2 -7 -22 23 -19 87 10 17 7 87
38 157 69 171 74 565 272 663 332 22 13 50 30 62 36 17 8 20 14 12 24 -8 9 -6
11 8 8 21 -5 99 38 96 53 -1 5 4 10 11 10 11 0 143 85 185 118 9 8 54 42 101
77 114 85 375 342 365 358 -5 8 -4 11 2 7 10 -6 40 24 86 84 9 13 29 39 43 56
14 18 23 37 19 43 -4 6 -1 9 7 8 8 -2 12 6 10 22 -1 17 1 21 7 12 14 -22 127
180 187 333 42 110 45 123 26 128 -16 4 -16 5 -1 6 25 2 25 3 65 236 8 50 17
101 20 115 4 26 28 163 45 265 5 33 14 92 20 130 6 39 12 72 15 74 2 2 -1 12
-7 22 -7 14 -6 17 4 14 7 -3 13 2 13 12 0 10 13 89 28 176 15 87 29 168 30
180 2 12 6 29 9 37 3 8 8 35 11 60 3 25 10 65 15 90 7 32 6 49 -2 59 -9 11 -9
13 0 8 8 -5 14 5 18 30 4 21 15 84 26 141 11 57 17 107 14 112 -4 6 -1 10 4
10 6 0 11 5 11 11 0 5 -6 7 -12 3 -10 -6 -10 -4 -2 7 12 16 39 140 64 299 11
69 13 82 25 145 5 22 9 54 10 70 1 17 5 37 8 45 10 28 36 174 39 222 2 27 7
48 11 48 5 0 7 10 6 23 -2 12 0 28 4 34 4 7 3 22 -3 33 -8 15 -8 20 1 18 6 -2
13 7 15 20 2 12 -1 22 -8 22 -7 0 -6 5 4 13 9 7 20 46 27 97 7 47 17 101 21
120 11 44 19 83 27 139 5 34 3 42 -6 36 -9 -5 -8 1 2 16 16 26 71 325 62 339
-3 5 -1 11 4 14 7 5 16 41 26 111 2 11 6 34 9 50 4 17 8 49 11 72 3 23 9 63
15 90 6 26 14 65 16 85 3 20 11 65 19 100 7 35 12 78 11 96 -1 17 2 32 7 32 4
0 7 6 6 13 -1 6 0 19 4 27 8 22 39 199 42 240 1 20 7 45 13 56 7 13 7 26 1 35
-12 20 -11 37 2 19 9 -12 10 -11 6 8 -3 12 -2 22 2 22 5 0 14 54 21 120 11
106 11 135 -4 248 -10 70 -24 144 -32 165 -7 20 -13 41 -11 45 1 4 -5 25 -14
47 -9 22 -29 70 -44 107 -14 36 -33 74 -40 85 -8 10 1 -18 19 -62z m-1421
-6350 c-3 -9 -8 -14 -10 -11 -3 3 -2 9 2 15 9 16 15 13 8 -4z"/>
<path d="M1430 2256 c0 -2 8 -10 18 -17 15 -13 16 -12 3 4 -13 16 -21 21 -21
13z"/>
</g>
</svg>
